<svg width="668" height="268" viewBox="0 0 668 268" fill="none" xmlns="http://www.w3.org/2000/svg">
<g opacity="0.3">
<path d="M57.9219 19.2501C57.9219 8.76984 66.4178 0.273865 76.8981 0.273865H591.629C602.11 0.273865 610.606 8.76983 610.606 19.2501V380.985H57.9219V19.2501Z" fill="#050B1E"/>
<path d="M310.799 26.8044C309.959 26.8044 309.224 26.6778 308.594 26.4245C307.964 26.1712 307.467 25.816 307.102 25.3589C306.744 24.9018 306.537 24.3737 306.481 23.7745L306.472 23.6818H308.066L308.075 23.7652C308.118 24.1111 308.26 24.4107 308.501 24.664C308.742 24.9111 309.067 25.1057 309.474 25.2477C309.888 25.3836 310.355 25.4516 310.873 25.4516C311.374 25.4516 311.815 25.3775 312.198 25.2292C312.588 25.081 312.89 24.874 313.106 24.6084C313.323 24.3366 313.431 24.0278 313.431 23.6818V23.6726C313.431 23.234 313.261 22.8726 312.921 22.5885C312.588 22.3043 312.038 22.0819 311.272 21.9213L310.03 21.6619C308.887 21.4272 308.054 21.0565 307.528 20.55C307.01 20.0435 306.75 19.3949 306.75 18.6042V18.5949C306.75 17.9896 306.923 17.4522 307.269 16.9827C307.615 16.5132 308.094 16.1488 308.705 15.8893C309.323 15.6237 310.024 15.4909 310.809 15.4909C311.593 15.4909 312.279 15.6206 312.866 15.8801C313.459 16.1395 313.928 16.4916 314.274 16.9364C314.62 17.3811 314.814 17.8784 314.858 18.4281L314.867 18.5301H313.282L313.264 18.4374C313.184 17.9741 312.927 17.5911 312.495 17.2885C312.063 16.9858 311.491 16.8375 310.781 16.8437C310.324 16.8437 309.913 16.9117 309.548 17.0476C309.19 17.1834 308.906 17.378 308.696 17.6313C308.486 17.8784 308.381 18.1811 308.381 18.5393C308.381 18.9594 308.545 19.3084 308.872 19.5864C309.206 19.8643 309.746 20.0805 310.494 20.235L311.735 20.5037C312.921 20.7508 313.774 21.1121 314.292 21.5878C314.811 22.0634 315.071 22.6966 315.071 23.4873V23.4965C315.071 24.1822 314.895 24.7721 314.543 25.2663C314.197 25.7604 313.703 26.1403 313.06 26.406C312.424 26.6716 311.67 26.8044 310.799 26.8044ZM322.457 26.8044C321.413 26.8044 320.511 26.5758 319.751 26.1187C318.992 25.6616 318.405 25.0099 317.991 24.1637C317.577 23.3174 317.37 22.3167 317.37 21.1615V21.1523C317.37 19.991 317.574 18.9872 317.982 18.1409C318.396 17.2946 318.982 16.6429 319.742 16.1858C320.508 15.7225 321.41 15.4909 322.448 15.4909C323.269 15.4909 324.011 15.6422 324.672 15.9449C325.339 16.2476 325.885 16.6677 326.312 17.2051C326.744 17.7425 327.013 18.3633 327.118 19.0675V19.0953H325.505L325.496 19.0675C325.379 18.6166 325.178 18.2274 324.894 17.9C324.61 17.5726 324.258 17.3193 323.838 17.1402C323.424 16.9549 322.96 16.8622 322.448 16.8622C321.75 16.8622 321.141 17.0383 320.622 17.3904C320.11 17.7363 319.714 18.2305 319.436 18.8729C319.158 19.5092 319.019 20.2659 319.019 21.143V21.1615C319.019 22.0325 319.158 22.7892 319.436 23.4317C319.721 24.0741 320.119 24.5683 320.632 24.9142C321.144 25.2601 321.753 25.4331 322.457 25.4331C322.97 25.4331 323.433 25.3528 323.847 25.1921C324.261 25.0254 324.61 24.7937 324.894 24.4972C325.178 24.1945 325.376 23.8393 325.487 23.4317L325.505 23.4039H327.118V23.4409C327 24.1142 326.729 24.7042 326.302 25.2107C325.882 25.7172 325.342 26.1095 324.681 26.3874C324.026 26.6654 323.285 26.8044 322.457 26.8044ZM334.708 26.8044C333.614 26.8044 332.675 26.5758 331.891 26.1187C331.106 25.6554 330.501 25.0007 330.075 24.1544C329.655 23.3019 329.445 22.3012 329.445 21.1523V21.143C329.445 19.9879 329.658 18.9872 330.084 18.1409C330.517 17.2946 331.125 16.6429 331.909 16.1858C332.7 15.7225 333.633 15.4909 334.708 15.4909C335.795 15.4909 336.731 15.7225 337.515 16.1858C338.3 16.6491 338.905 17.3039 339.331 18.1502C339.758 18.9903 339.971 19.9879 339.971 21.143V21.1523C339.971 22.3012 339.758 23.2988 339.331 24.1451C338.911 24.9914 338.309 25.6462 337.525 26.1095C336.74 26.5727 335.801 26.8044 334.708 26.8044ZM334.717 25.4331C335.464 25.4331 336.107 25.257 336.644 24.9049C337.182 24.5528 337.596 24.0555 337.886 23.4131C338.182 22.7707 338.331 22.0171 338.331 21.1523V21.1337C338.331 20.2628 338.182 19.5092 337.886 18.8729C337.596 18.2305 337.179 17.7332 336.635 17.3811C336.098 17.029 335.458 16.853 334.717 16.853C333.982 16.853 333.343 17.029 332.799 17.3811C332.255 17.7332 331.835 18.2305 331.539 18.8729C331.242 19.5092 331.094 20.2628 331.094 21.1337V21.1523C331.094 22.0171 331.239 22.7707 331.53 23.4131C331.82 24.0555 332.237 24.5528 332.78 24.9049C333.324 25.257 333.97 25.4331 334.717 25.4331ZM343.623 22.7831V21.4766H346.755C347.539 21.4766 348.148 21.282 348.58 20.8928C349.012 20.5037 349.229 19.9632 349.229 19.2713V19.2621C349.229 18.564 349.012 18.0235 348.58 17.6406C348.148 17.2514 347.539 17.0568 346.755 17.0568H343.623V15.7503H347.162C347.891 15.7503 348.534 15.8955 349.09 16.1858C349.646 16.4762 350.081 16.8839 350.396 17.4089C350.711 17.934 350.869 18.5455 350.869 19.2435V19.2621C350.869 19.9477 350.711 20.5562 350.396 21.0874C350.081 21.6187 349.646 22.0356 349.09 22.3383C348.534 22.6348 347.891 22.7831 347.162 22.7831H343.623ZM342.817 26.5542V15.7503H344.429V26.5542H342.817ZM353.594 26.5542V15.7503H360.729V17.0846H355.206V20.3925H360.432V21.6897H355.206V25.2199H360.729V26.5542H353.594Z" fill="white"/>
<path d="M76.8981 0.62967H591.629C601.913 0.62967 610.25 8.96633 610.25 19.2501V380.629H58.2777V19.2501C58.2777 8.96634 66.6143 0.62967 76.8981 0.62967Z" stroke="white" stroke-opacity="0.4" stroke-width="0.71161"/>
</g>
<g opacity="0.4">
<path d="M31.8281 46.5285C31.8281 36.0482 40.3241 27.5522 50.8044 27.5522H617.72C628.201 27.5522 636.697 36.0482 636.697 46.5285V408.264H31.8281V46.5285Z" fill="#050B1E"/>
<path d="M307.881 54.0828C306.838 54.0828 305.936 53.8542 305.176 53.3971C304.416 52.94 303.829 52.2883 303.415 51.442C303.002 50.5958 302.795 49.5951 302.795 48.4399V48.4307C302.795 47.2694 302.998 46.2656 303.406 45.4193C303.82 44.573 304.407 43.9213 305.167 43.4642C305.933 43.0009 306.834 42.7693 307.872 42.7693C308.694 42.7693 309.435 42.9206 310.096 43.2233C310.763 43.526 311.31 43.946 311.736 44.4835C312.168 45.0209 312.437 45.6417 312.542 46.3459V46.3737H310.93L310.921 46.3459C310.803 45.8949 310.603 45.5058 310.318 45.1784C310.034 44.851 309.682 44.5977 309.262 44.4186C308.848 44.2333 308.385 44.1406 307.872 44.1406C307.174 44.1406 306.566 44.3167 306.047 44.6688C305.534 45.0147 305.139 45.5089 304.861 46.1513C304.583 46.7875 304.444 47.5442 304.444 48.4214V48.4399C304.444 49.3109 304.583 50.0676 304.861 50.71C305.145 51.3525 305.543 51.8466 306.056 52.1926C306.569 52.5385 307.177 52.7114 307.881 52.7114C308.394 52.7114 308.857 52.6311 309.271 52.4705C309.685 52.3037 310.034 52.0721 310.318 51.7756C310.603 51.4729 310.8 51.1177 310.911 50.71L310.93 50.6822H312.542V50.7193C312.425 51.3926 312.153 51.9825 311.727 52.4891C311.307 52.9956 310.766 53.3878 310.105 53.6658C309.45 53.9438 308.709 54.0828 307.881 54.0828ZM315.314 53.8326V43.0287H319.715C320.858 43.0287 321.763 43.3252 322.43 43.9182C323.097 44.5051 323.431 45.2927 323.431 46.281V46.2995C323.431 47.0346 323.233 47.6801 322.838 48.2361C322.442 48.7858 321.896 49.1688 321.198 49.385L323.774 53.8326H321.902L319.539 49.6167C319.527 49.6167 319.511 49.6167 319.493 49.6167C319.481 49.6167 319.468 49.6167 319.456 49.6167H316.926V53.8326H315.314ZM316.926 48.338H319.567C320.265 48.338 320.806 48.165 321.189 47.8191C321.572 47.467 321.763 46.9759 321.763 46.3459V46.3273C321.763 45.7034 321.562 45.2154 321.161 44.8633C320.765 44.5112 320.216 44.3352 319.511 44.3352H316.926V48.338ZM326.388 53.8326V43.0287H333.523V44.363H328V47.6709H333.226V48.9681H328V52.4983H333.523V53.8326H326.388ZM335.581 53.8326L339.704 43.0287H340.983V44.8355H340.492L337.277 53.8326H335.581ZM337.518 50.8212L337.99 49.5703H343.133L343.614 50.8212H337.518ZM343.837 53.8326L340.612 44.8355V43.0287H341.4L345.532 53.8326H343.837ZM349.453 53.8326V44.363H345.858V43.0287H354.67V44.363H351.075V53.8326H349.453ZM357.256 53.8326V43.0287H364.391V44.363H358.869V47.6709H364.095V48.9681H358.869V52.4983H364.391V53.8326H357.256Z" fill="white"/>
<path d="M50.8044 27.9081H617.72C628.004 27.9081 636.341 36.2447 636.341 46.5285V407.908H32.1839V46.5285C32.1839 36.2447 40.5206 27.9081 50.8044 27.9081Z" stroke="white" stroke-opacity="0.4" stroke-width="0.71161"/>
</g>
<path d="M0.992188 73.4131C0.992188 62.9328 9.48815 54.4368 19.9685 54.4368H648.557C659.037 54.4368 667.533 62.9328 667.533 73.4131V435.148H0.992188V73.4131Z" fill="#050B1E"/>
<path d="M317.561 80.7172V69.9133H321.962C323.105 69.9133 324.009 70.2098 324.677 70.8028C325.344 71.3896 325.677 72.1772 325.677 73.1656V73.1841C325.677 73.9192 325.48 74.5647 325.084 75.1206C324.689 75.6704 324.142 76.0534 323.444 76.2696L326.02 80.7172H324.148L321.786 76.5012C321.773 76.5012 321.758 76.5012 321.739 76.5012C321.727 76.5012 321.715 76.5012 321.702 76.5012H319.173V80.7172H317.561ZM319.173 75.2226H321.813C322.512 75.2226 323.052 75.0496 323.435 74.7037C323.818 74.3516 324.009 73.8605 324.009 73.2304V73.2119C324.009 72.588 323.809 72.1 323.407 71.7479C323.012 71.3958 322.462 71.2198 321.758 71.2198H319.173V75.2226ZM333.184 80.9673C332.239 80.9673 331.423 80.8006 330.738 80.467C330.058 80.1334 329.533 79.667 329.163 79.0679C328.798 78.4687 328.616 77.7768 328.616 76.9923V69.9133H330.228V76.8811C330.228 77.6904 330.485 78.3451 330.997 78.8455C331.516 79.3458 332.245 79.596 333.184 79.596C334.117 79.596 334.839 79.3458 335.352 78.8455C335.865 78.3451 336.121 77.6904 336.121 76.8811V69.9133H337.733V76.9923C337.733 77.7768 337.551 78.4687 337.187 79.0679C336.822 79.667 336.3 80.1334 335.621 80.467C334.948 80.8006 334.135 80.9673 333.184 80.9673ZM341.006 80.7172V69.9133H342.507L348.946 78.6694L347.788 78.0486H348.594V69.9133H350.179V80.7172H348.678L342.247 71.9703L343.396 72.5911H342.59V80.7172H341.006Z" fill="white"/>
<path d="M19.9685 54.7926H648.557C658.841 54.7926 667.178 63.1293 667.178 73.4131V434.792H1.34799V73.4131C1.34799 63.1293 9.68466 54.7926 19.9685 54.7926Z" stroke="white" stroke-opacity="0.4" stroke-width="0.71161"/>
</svg>
